<svg width="74" height="74" viewBox="0 0 74 74" fill="none" xmlns="http://www.w3.org/2000/svg">
<rect width="74" height="74" fill="#F2F2F2"/>
<g id="Artboard" clip-path="url(#clip0_0_1)">
<rect width="2000" height="3100" transform="translate(-775 -1400)" fill="white"/>
<g id="back" clip-path="url(#clip1_0_1)">
<rect id="back_2" x="-775" y="-1400" width="2000" height="3100" fill="#282828"/>
<g id="Layer 51" filter="url(#filter0_d_0_1)">
<rect x="-375" y="-1400" width="1200" height="3100" fill="#3C3C3C"/>
</g>
</g>
<g id="body" clip-path="url(#clip2_0_1)">
<g id="&#208;&#159;&#208;&#190;&#209;&#135;&#208;&#181;&#208;&#188;&#209;&#131; &#208;&#188;&#209;&#139;?" clip-path="url(#clip3_0_1)">
<rect id="Layer 53" x="-375" y="-160" width="1200" height="1100" fill="#EBEDEE"/>
<path id="Ellipse 6" fill-rule="evenodd" clip-rule="evenodd" d="M35.9998 -20C80.1827 -20 116 15.8173 116 59.9998C116 104.183 80.1827 140 35.9998 140C-8.18288 140 -44 104.183 -44 59.9998C-44 15.8173 -8.18288 -20 35.9998 -20Z" fill="white"/>
<g id="Clock" clip-path="url(#clip4_0_1)">
<path id="body shape" fill-rule="evenodd" clip-rule="evenodd" d="M36.9999 -7.4e-05C57.4345 -7.4e-05 74 16.5653 74 36.9999C74 57.4345 57.4345 73.9999 36.9999 73.9999C16.5654 73.9999 0 57.4345 0 36.9999C0 16.5653 16.5654 -7.4e-05 36.9999 -7.4e-05Z" fill="#FF8933"/>
<path id="inner circle" fill-rule="evenodd" clip-rule="evenodd" d="M36.9999 6.99994C53.5685 6.99994 67 20.4314 67 36.9999C67 53.5685 53.5685 66.9999 36.9999 66.9999C20.4314 66.9999 6.99994 53.5685 6.99994 36.9999C6.99994 20.4314 20.4314 6.99994 36.9999 6.99994Z" fill="white"/>
<path id="seconds" fill-rule="evenodd" clip-rule="evenodd" d="M32.6464 33.3534L33.3535 32.6465L51.3535 50.6464L50.6464 51.3536L32.6464 33.3534Z" fill="#FF725F"/>
<path id="center circle" fill-rule="evenodd" clip-rule="evenodd" d="M36.9999 33.9999C38.6568 33.9999 39.9999 35.3431 39.9999 36.9999C39.9999 38.6568 38.6568 39.9999 36.9999 39.9999C35.3431 39.9999 34 38.6568 34 36.9999C34 35.3431 35.3431 33.9999 36.9999 33.9999Z" fill="#808080"/>
<path id="minutes" fill-rule="evenodd" clip-rule="evenodd" d="M38 36.9999C38 37.5522 37.5523 37.9999 36.9999 37.9999H21.9999C21.4476 37.9999 21 37.5522 21 36.9999C21 36.4476 21.4476 35.9999 21.9999 35.9999H36.9999C37.5523 35.9999 38 36.4476 38 36.9999Z" fill="#808080"/>
<path id="hours" fill-rule="evenodd" clip-rule="evenodd" d="M36.9999 14C37.5523 14 38 14.4476 38 14.9999V36.9999C38 37.5522 37.5523 37.9999 36.9999 37.9999C36.4477 37.9999 36 37.5522 36 36.9999V14.9999C36 14.4476 36.4477 14 36.9999 14Z" fill="#808080"/>
</g>
</g>
</g>
</g>
<defs>
<filter id="filter0_d_0_1" x="-390" y="-1415" width="1230" height="3130" filterUnits="userSpaceOnUse" color-interpolation-filters="sRGB">
<feFlood flood-opacity="0" result="BackgroundImageFix"/>
<feColorMatrix in="SourceAlpha" type="matrix" values="0 0 0 0 0 0 0 0 0 0 0 0 0 0 0 0 0 0 127 0" result="hardAlpha"/>
<feOffset/>
<feGaussianBlur stdDeviation="7.5"/>
<feColorMatrix type="matrix" values="0 0 0 0 0 0 0 0 0 0 0 0 0 0 0.00392157 0 0 0 0.75 0"/>
<feBlend mode="normal" in2="BackgroundImageFix" result="effect1_dropShadow_0_1"/>
<feBlend mode="normal" in="SourceGraphic" in2="effect1_dropShadow_0_1" result="shape"/>
</filter>
<clipPath id="clip0_0_1">
<rect width="2000" height="3100" fill="white" transform="translate(-775 -1400)"/>
</clipPath>
<clipPath id="clip1_0_1">
<rect width="2000" height="3130" fill="white" transform="translate(-775 -1415)"/>
</clipPath>
<clipPath id="clip2_0_1">
<rect width="1200" height="2160" fill="white" transform="translate(-375 -500)"/>
</clipPath>
<clipPath id="clip3_0_1">
<rect width="1200" height="1100" fill="white" transform="translate(-375 -160)"/>
</clipPath>
<clipPath id="clip4_0_1">
<rect width="74" height="74" fill="white"/>
</clipPath>
</defs>
</svg>
