<svg width="58" height="72" viewBox="0 0 58 72" fill="none" xmlns="http://www.w3.org/2000/svg">
<g clip-path="url(#clip0_0_118)">
<path fill-rule="evenodd" clip-rule="evenodd" d="M16 45.9999H41.9999L44.9999 71.9999L29 62.9999L12.9998 71.9999L16 45.9999Z" fill="#5BB3F0"/>
<path fill-rule="evenodd" clip-rule="evenodd" d="M58.0022 28.9999C58.0022 29.9138 55.2196 30.6849 55.1331 31.5758C55.0448 32.4841 57.6244 33.7773 57.4505 34.6577C57.2738 35.5514 54.3941 35.7651 54.1337 36.6254C53.8701 37.4951 56.1455 39.2706 55.8008 40.1019C55.4529 40.9408 52.5883 40.5845 52.1628 41.3792C51.7348 42.1784 53.6182 44.3652 53.1159 45.1152C52.6124 45.8681 49.8713 44.9596 49.2983 45.6575C48.7239 46.3569 50.1465 48.8687 49.5075 49.5079C48.8684 50.147 46.356 48.7242 45.6571 49.2987C44.9592 49.8722 45.8673 52.6128 45.1148 53.1163C44.3651 53.6185 42.1777 51.7348 41.3784 52.1629C40.5841 52.5883 40.9399 55.4533 40.1015 55.8007C39.2701 56.1455 37.4951 53.87 36.625 54.1337C35.7647 54.394 35.551 57.2734 34.6581 57.45C33.7778 57.624 32.484 55.0448 31.576 55.1331C30.6849 55.2196 29.9142 58.0021 29 58.0021C28.0857 58.0021 27.315 55.2196 26.4239 55.1331C25.5159 55.0448 24.2215 57.624 23.3418 57.45C22.4484 57.2734 22.2348 54.394 21.3744 54.1337C20.5047 53.87 18.7293 56.1455 17.8979 55.8007C17.0589 55.4528 17.4154 52.5883 16.6206 52.1629C15.8214 51.7348 13.6348 53.6182 12.8846 53.1159C12.1317 52.6124 13.0398 49.8713 12.3423 49.2987C11.6429 48.7242 9.13164 50.1465 8.49242 49.5075C7.85285 48.8684 9.27513 46.3556 8.7007 45.6568C8.12719 44.9587 5.38704 45.8673 4.88314 45.1148C4.38138 44.3652 6.26522 42.1781 5.83706 41.3787C5.41157 40.5845 2.54649 40.9399 2.19866 40.1015C1.85426 39.2701 4.12983 37.4951 3.86628 36.625C3.60569 35.7647 0.726392 35.5511 0.54984 34.6581C0.375492 33.7778 2.95504 32.4841 2.86671 31.5758C2.78029 30.6849 -0.00232 29.9142 -0.00232 28.9999C-0.00232 28.086 2.78029 27.315 2.86671 26.424C2.95504 25.5158 0.375956 24.2217 0.54984 23.3416C0.726392 22.4484 3.60569 22.2346 3.86628 21.3743C4.12983 20.5047 1.85426 18.7292 2.19901 17.8976C2.54695 17.0591 5.41157 17.4159 5.83753 16.6209C6.26562 15.8218 4.38173 13.6346 4.88395 12.8845C5.38797 12.132 8.12812 13.0406 8.70151 12.3427C9.27611 11.6439 7.85384 9.13111 8.49288 8.49201C9.13245 7.85285 11.6438 9.27565 12.3427 8.70116C13.0406 8.1276 12.1326 5.38704 12.885 4.88296C13.6348 4.38132 15.8222 6.26528 16.6215 5.837C17.4158 5.41146 17.0599 2.54649 17.8983 2.19913C18.7296 1.85438 20.5047 4.12983 21.3748 3.86616C22.2348 3.60563 22.4484 0.726508 23.3418 0.54984C24.2215 0.375782 25.5159 2.95504 26.4239 2.86671C27.315 2.78023 28.0857 -0.002262 29 -0.002262C29.9137 -0.002262 30.6849 2.78023 31.576 2.86671C32.484 2.95504 33.7783 0.375782 34.6581 0.550188C35.5515 0.726856 35.7647 3.60528 36.625 3.86582C37.4947 4.12983 39.2707 1.85438 40.1023 2.19913C40.9408 2.5469 40.5845 5.41146 41.3793 5.837C42.1785 6.26528 44.3656 4.38167 45.1153 4.88354C45.8676 5.38745 44.9592 8.1276 45.6571 8.70116C46.356 9.27565 48.8687 7.85343 49.5079 8.49294C50.1469 9.13204 48.7242 11.6433 49.2987 12.3427C49.8718 13.0406 52.6128 12.1326 53.1163 12.885C53.6185 13.6346 51.7348 15.8218 52.1628 16.6209C52.5883 17.4153 55.4534 17.06 55.8008 17.8983C56.1455 18.7296 53.8701 20.5047 54.1337 21.3749C54.3941 22.2346 57.2733 22.4484 57.45 23.3416C57.6239 24.2217 55.0448 25.5158 55.1331 26.424C55.2196 27.315 58.0022 28.0857 58.0022 28.9999Z" fill="#1983CD"/>
</g>
<defs>
<clipPath id="clip0_0_118">
<rect width="58" height="72" fill="white"/>
</clipPath>
</defs>
</svg>
